<svg width="108" height="46" viewBox="0 0 108 46" fill="none" xmlns="http://www.w3.org/2000/svg">
<path d="M40.4166 6.6097C40.5555 6.19769 54.166 0.429656 55.416 0.0176477C56.6659 -0.394361 70.8475 6.54111 70.832 6.88437C70.8165 7.22762 65.8822 8.87041 65.8822 8.87041L65.9711 12.6524L65.9944 12.6678C66.61 13.0736 66.6676 13.9553 66.11 14.4378L69.2117 19.9552H64.6649L64.86 14.4378C64.86 14.4378 64.4434 14.0258 64.4434 13.4764C64.4434 12.9271 64.9989 12.6524 64.9989 12.6524L64.0303 9.58384C64.0303 9.58384 56.6029 12.7914 55.4919 12.9288C54.3808 13.0661 40.2777 7.0217 40.4166 6.6097Z" fill="#BB1A30"/>
<path d="M46.3886 11.0044V15.2618C53.3525 18.7198 57.1326 18.9156 63.6101 15.5364V11.4164L55.416 14.8498L46.3886 11.0044Z" fill="#BB1A30"/>
<path d="M0.824343 29.5783C0.824343 28.2133 1.03708 26.9723 1.46254 25.8555C1.90574 24.7209 2.52621 23.737 3.32396 22.9038C4.12171 22.0706 5.07902 21.4235 6.19587 20.9626C7.31272 20.5017 8.5448 20.2535 9.89211 20.218C11.2572 20.1826 12.7108 20.3953 14.2532 20.8562C14.2532 21.6008 14.2532 22.3542 14.2532 23.1165C14.2532 23.8611 14.2532 24.6057 14.2532 25.3502C13.2072 24.8539 12.1701 24.5702 11.1419 24.4993C10.1137 24.4284 9.183 24.5702 8.34979 24.9248C7.51659 25.2793 6.8518 25.8466 6.35542 26.6266C5.85904 27.3889 5.61085 28.3728 5.61085 29.5783C5.61085 30.7838 5.85904 31.7766 6.35542 32.5566C6.8518 33.3189 7.51659 33.8773 8.34979 34.2319C9.183 34.5864 10.1137 34.7283 11.1419 34.6573C12.1701 34.5864 13.2072 34.3028 14.2532 33.8064C14.2532 34.551 14.2532 35.3044 14.2532 36.0667C14.2532 36.8113 14.2532 37.5558 14.2532 38.3004C12.7108 38.7613 11.2572 38.9741 9.89211 38.9386C8.5448 38.9032 7.31272 38.655 6.19587 38.194C5.07902 37.7331 4.12171 37.0861 3.32396 36.2528C2.52621 35.4196 1.90574 34.4446 1.46254 33.3278C1.03708 32.1932 0.824343 30.9434 0.824343 29.5783ZM15.5811 38.6195C16.5029 35.6412 17.4248 32.6275 18.3466 29.5783C19.2862 26.5291 20.2169 23.5154 21.1387 20.5371C22.1847 20.5371 23.2395 20.5371 24.3032 20.5371C25.3845 20.5371 26.4482 20.5371 27.4942 20.5371C28.416 23.5154 29.3378 26.5291 30.2597 29.5783C31.1993 32.6275 32.13 35.6412 33.0518 38.6195C32.2895 38.6195 31.5095 38.6195 30.7118 38.6195C29.9317 38.6195 29.1517 38.6195 28.3717 38.6195C28.1944 38.0522 28.026 37.4849 27.8664 36.9176C27.7069 36.3326 27.5385 35.7565 27.3612 35.1892C26.3507 35.1892 25.3314 35.1892 24.3032 35.1892C23.2927 35.1892 22.2822 35.1892 21.2717 35.1892C21.0944 35.7565 20.926 36.3326 20.7665 36.9176C20.6069 37.4849 20.4385 38.0522 20.2612 38.6195C19.4989 38.6195 18.7189 38.6195 17.9211 38.6195C17.1411 38.6195 16.3611 38.6195 15.5811 38.6195ZM22.4417 31.227C23.0622 31.227 23.6827 31.227 24.3032 31.227C24.9414 31.227 25.5707 31.227 26.1912 31.227C25.8898 30.1811 25.5796 29.1263 25.2605 28.0626C24.9414 26.9989 24.6311 25.9441 24.3297 24.8982C24.0284 25.9441 23.7093 26.9989 23.3724 28.0626C23.0533 29.1263 22.7431 30.1811 22.4417 31.227ZM34.7863 38.6195C34.7863 35.6412 34.7863 32.6275 34.7863 29.5783C34.7863 26.5291 34.7863 23.5154 34.7863 20.5371C35.8854 20.5371 36.9846 20.5371 38.0837 20.5371C39.2005 20.5371 40.2997 20.5371 41.381 20.5371C42.7461 20.5371 43.9339 20.8031 44.9443 21.3349C45.9548 21.849 46.7437 22.5758 47.311 23.5154C47.8783 24.455 48.1619 25.5541 48.1619 26.8128C48.1619 28.0537 47.8783 29.144 47.311 30.0836C46.7614 31.0231 45.9991 31.75 45.0241 32.2641C44.0668 32.7782 42.9766 33.0352 41.7533 33.0352C41.3633 33.0352 40.9733 33.0352 40.5833 33.0352C40.211 33.0352 39.8299 33.0352 39.4399 33.0352C39.4399 33.9571 39.4399 34.8878 39.4399 35.8274C39.4399 36.767 39.4399 37.6977 39.4399 38.6195C38.6776 38.6195 37.9064 38.6195 37.1264 38.6195C36.3464 38.6195 35.5663 38.6195 34.7863 38.6195ZM41.381 24.712C41.0619 24.712 40.734 24.712 40.3972 24.712C40.0781 24.712 39.759 24.712 39.4399 24.712C39.4399 25.4212 39.4399 26.1391 39.4399 26.866C39.4399 27.5751 39.4399 28.2842 39.4399 28.9933C39.7944 28.9933 40.1578 28.9933 40.5301 28.9933C40.9201 28.9933 41.2924 28.9933 41.647 28.9933C42.1965 28.9933 42.6397 28.7894 42.9766 28.3817C43.3311 27.974 43.5084 27.4687 43.5084 26.866C43.5084 26.2455 43.3222 25.7314 42.95 25.3237C42.5777 24.9159 42.0547 24.712 41.381 24.712ZM50.5492 38.6195C50.5492 35.6412 50.5492 32.6275 50.5492 29.5783C50.5492 26.5291 50.5492 23.5154 50.5492 20.5371C52.3397 20.5371 54.1479 20.5371 55.9739 20.5371C57.7998 20.5371 59.6081 20.5371 61.3986 20.5371C61.3986 21.2108 61.3986 21.9022 61.3986 22.6113C61.3986 23.3204 61.3986 24.0118 61.3986 24.6855C60.3704 24.6855 59.3333 24.6855 58.2873 24.6855C57.2591 24.6855 56.2309 24.6855 55.2027 24.6855C55.2027 25.1286 55.2027 25.5718 55.2027 26.015C55.2027 26.4405 55.2027 26.8748 55.2027 27.318C56.1423 27.318 57.0907 27.318 58.048 27.318C59.0053 27.318 59.9449 27.318 60.8667 27.318C60.8667 27.974 60.8667 28.6388 60.8667 29.3124C60.8667 29.9861 60.8667 30.6597 60.8667 31.3334C59.9449 31.3334 59.0053 31.3334 58.048 31.3334C57.0907 31.3334 56.1423 31.3334 55.2027 31.3334C55.2027 31.8475 55.2027 32.3705 55.2027 32.9023C55.2027 33.4341 55.2027 33.9571 55.2027 34.4712C56.2309 34.4712 57.2591 34.4712 58.2873 34.4712C59.3333 34.4712 60.3704 34.4712 61.3986 34.4712C61.3986 35.1449 61.3986 35.8362 61.3986 36.5454C61.3986 37.2545 61.3986 37.9459 61.3986 38.6195C59.6081 38.6195 57.7998 38.6195 55.9739 38.6195C54.1479 38.6195 52.3397 38.6195 50.5492 38.6195ZM64.5981 38.6195C64.5981 35.6412 64.5981 32.6275 64.5981 29.5783C64.5981 26.5291 64.5981 23.5154 64.5981 20.5371C65.3781 20.5371 66.1581 20.5371 66.9382 20.5371C67.7182 20.5371 68.4893 20.5371 69.2516 20.5371C69.2516 22.824 69.2516 25.1375 69.2516 27.4776C69.2516 29.7999 69.2516 32.1045 69.2516 34.3914C70.1912 34.3914 71.1397 34.3914 72.097 34.3914C73.0543 34.3914 73.9938 34.3914 74.9157 34.3914C74.9157 35.0828 74.9157 35.7919 74.9157 36.5188C74.9157 37.2279 74.9157 37.9281 74.9157 38.6195C73.2138 38.6195 71.4942 38.6195 69.7569 38.6195C68.0196 38.6195 66.3 38.6195 64.5981 38.6195ZM91.898 31.7588C91.898 32.8757 91.703 33.8862 91.313 34.7903C90.9407 35.6767 90.4089 36.439 89.7175 37.0772C89.0438 37.7154 88.2461 38.2029 87.3242 38.5397C86.4201 38.8766 85.4362 39.045 84.3726 39.045C83.2912 39.045 82.2984 38.8766 81.3943 38.5397C80.4902 38.2029 79.7013 37.7243 79.0276 37.1038C78.3717 36.4656 77.8576 35.7033 77.4853 34.8169C77.113 33.9305 76.9269 32.9289 76.9269 31.812C76.9269 29.9506 76.9269 28.0715 76.9269 26.1746C76.9269 24.2777 76.9269 22.3986 76.9269 20.5371C77.7069 20.5371 78.4869 20.5371 79.267 20.5371C80.047 20.5371 80.8181 20.5371 81.5804 20.5371C81.5804 22.3631 81.5804 24.1979 81.5804 26.0416C81.5804 27.8853 81.5804 29.7202 81.5804 31.5461C81.5804 32.5034 81.8463 33.2746 82.3782 33.8596C82.91 34.4446 83.5925 34.7371 84.4257 34.7371C85.259 34.7371 85.9326 34.4446 86.4467 33.8596C86.9785 33.2746 87.2445 32.5034 87.2445 31.5461C87.2445 29.7202 87.2445 27.8853 87.2445 26.0416C87.2445 24.1979 87.2445 22.3631 87.2445 20.5371C88.0245 20.5371 88.8045 20.5371 89.5845 20.5371C90.3646 20.5371 91.1357 20.5371 91.898 20.5371C91.898 22.3808 91.898 24.2511 91.898 26.148C91.898 28.0449 91.898 29.9152 91.898 31.7588ZM106.972 33.1682C106.972 34.5155 106.617 35.6146 105.908 36.4656C105.217 37.2988 104.277 37.9015 103.089 38.2738C101.919 38.6461 100.607 38.8056 99.1536 38.7525C97.6999 38.717 96.2196 38.4954 94.7128 38.0877C94.7128 37.3254 94.7128 36.5631 94.7128 35.8008C94.7128 35.0385 94.7128 34.2762 94.7128 33.5139C96.0956 34.0103 97.3542 34.3205 98.4888 34.4446C99.6234 34.5687 100.528 34.5244 101.201 34.3117C101.875 34.0812 102.212 33.7 102.212 33.1682C102.212 32.7959 102.026 32.4946 101.653 32.2641C101.281 32.0159 100.793 31.7943 100.191 31.5993C99.6057 31.4043 98.9852 31.1827 98.3293 30.9345C97.6733 30.6686 97.044 30.3406 96.4412 29.9506C95.8562 29.5429 95.3776 29.0199 95.0053 28.3817C94.633 27.7258 94.4469 26.9103 94.4469 25.9353C94.4469 24.7298 94.766 23.7104 95.4042 22.8772C96.0424 22.044 96.9022 21.4147 97.9836 20.9892C99.0827 20.5637 100.324 20.351 101.706 20.351C103.107 20.351 104.552 20.5637 106.041 20.9892C106.041 21.7515 106.041 22.5138 106.041 23.2761C106.041 24.0384 106.041 24.8007 106.041 25.563C104.8 25.0311 103.656 24.712 102.611 24.6057C101.582 24.4816 100.758 24.5348 100.137 24.7652C99.517 24.978 99.2068 25.3325 99.2068 25.8289C99.2068 26.1835 99.3929 26.476 99.7652 26.7064C100.137 26.9369 100.616 27.1496 101.201 27.3446C101.804 27.5219 102.433 27.7435 103.089 28.0094C103.745 28.2576 104.366 28.5944 104.951 29.0199C105.553 29.4276 106.041 29.9683 106.413 30.642C106.785 31.2979 106.972 32.14 106.972 33.1682Z" fill="#BB1A30"/>
</svg>
